<!-- Generated by IcoMoon.io -->
<svg version="1.1" xmlns="http://www.w3.org/2000/svg" width="102" height="32" viewBox="0 0 102 32">
<title>logo-1</title>
<path fill="#777" d="M100.269 29.767h-3.931v-0.081h0.101c0.004 0 0.008 0 0.012 0 0.139 0 0.264-0.057 0.353-0.149l0-0c0.094-0.091 0.153-0.218 0.156-0.358v-4.527c-0.011-0.282-0.239-0.507-0.52-0.514h-0.102v-0.081h3.227c0.129 0 0.257-0.034 0.365-0.061 0.092-0.013 0.174-0.035 0.252-0.064l-0.009 0.003v1.279h-0.047v-0.108c0-0 0-0.001 0-0.001 0-0.359-0.28-0.653-0.634-0.675l-0.002-0h-1.502v2.361h1.164c0.167-0.003 0.317-0.072 0.426-0.183l0-0c0.105-0.102 0.169-0.244 0.169-0.402 0-0.006-0-0.012-0-0.018l0 0.001v-0.081h0.081v1.671h-0.081v-0.088c0-0.006 0-0.012 0-0.019 0-0.159-0.065-0.303-0.169-0.408l-0-0c-0.108-0.105-0.256-0.169-0.418-0.169-0.003 0-0.005 0-0.008 0h-1.163v2.334h1.082c0.010 0 0.022 0 0.034 0 0.249 0 0.484-0.058 0.693-0.16l-0.009 0.004c0.203-0.102 0.371-0.246 0.498-0.422l0.003-0.004c0.136-0.195 0.251-0.419 0.333-0.657l0.006-0.019h0.081zM93.294 29.68c-0.216-0.059-0.406-0.15-0.574-0.268l0.006 0.004c-0.166-0.126-0.307-0.273-0.422-0.44l-0.004-0.006c0-0.054-0.074-0.129-0.135-0.223l-0.196-0.338c-0.068-0.129-0.135-0.244-0.203-0.365s-0.129-0.216-0.176-0.311-0.074-0.156-0.088-0.196c-0.079-0.145-0.174-0.27-0.284-0.379l-0-0c-0.090-0.086-0.206-0.144-0.335-0.162l-0.003-0v-0.081h0.311c0.16-0.008 0.31-0.037 0.452-0.085l-0.012 0.003c0.161-0.057 0.298-0.15 0.405-0.27l0.001-0.001c0.124-0.154 0.214-0.342 0.256-0.547l0.001-0.008c0-0.054 0-0.115 0.034-0.189 0.005-0.036 0.008-0.077 0.008-0.118s-0.003-0.083-0.008-0.123l0.001 0.005c0-0.006 0-0.013 0-0.021 0-0.318-0.11-0.61-0.293-0.841l0.002 0.003c-0.168-0.186-0.408-0.305-0.675-0.311l-0.001-0h-0.744v4.77c-0 0.004-0 0.009-0 0.014 0 0.137 0.060 0.26 0.155 0.345l0.001 0c0.090 0.092 0.215 0.149 0.353 0.149 0.004 0 0.008-0 0.012-0h0.094v0.081h-2.233v-0.081h0.108c0.28-0.004 0.507-0.228 0.514-0.507v-4.527c0-0.002 0-0.005 0-0.008 0-0.139-0.060-0.264-0.155-0.351l-0-0c-0.090-0.095-0.217-0.154-0.358-0.156h-0.108v-0.081h2.591c0.241 0.001 0.474 0.036 0.694 0.099l-0.018-0.004c0.222 0.055 0.417 0.149 0.586 0.274l-0.004-0.003c0.166 0.126 0.299 0.287 0.389 0.473l0.003 0.008c0.090 0.188 0.142 0.41 0.142 0.643 0 0.012-0 0.024-0 0.035l0-0.002c-0.004 0.246-0.058 0.478-0.153 0.687l0.004-0.011c-0.106 0.235-0.262 0.43-0.457 0.579l-0.004 0.003c-0.203 0.155-0.458 0.252-0.735 0.264l-0.003 0c0.165 0.060 0.305 0.153 0.419 0.27l0 0c0.122 0.119 0.231 0.249 0.326 0.39l0.006 0.009 0.101 0.149 0.23 0.345c0.088 0.135 0.189 0.271 0.284 0.406s0.189 0.25 0.264 0.338c0.104 0.125 0.213 0.238 0.329 0.342l0.003 0.003c0.091 0.080 0.196 0.148 0.31 0.2l0.008 0.003c0.108 0.043 0.234 0.068 0.365 0.068 0.010 0 0.019-0 0.029-0l-0.001 0v0.142h-0.677c-0.265-0.007-0.518-0.048-0.758-0.12l0.020 0.005zM85.297 29.524c-0.455 0.227-0.99 0.359-1.557 0.359-0.026 0-0.052-0-0.078-0.001l0.004 0c-0.023 0.001-0.050 0.001-0.078 0.001-0.57 0-1.109-0.133-1.587-0.369l0.021 0.009c-0.457-0.233-0.824-0.585-1.069-1.016l-0.007-0.013c-0.242-0.454-0.384-0.994-0.384-1.566s0.142-1.112 0.393-1.584l-0.009 0.018c0.252-0.443 0.619-0.795 1.061-1.022l0.014-0.007c0.451-0.227 0.984-0.36 1.547-0.36 0.034 0 0.068 0 0.102 0.001l-0.005-0c0.027-0.001 0.059-0.001 0.092-0.001 0.561 0 1.090 0.133 1.559 0.369l-0.020-0.009c0.461 0.233 0.832 0.585 1.083 1.016l0.007 0.012c0.239 0.455 0.378 0.994 0.378 1.566s-0.14 1.111-0.387 1.585l0.009-0.019c-0.26 0.433-0.631 0.775-1.074 0.995l-0.015 0.007zM85.419 25.526c-0.139-0.374-0.372-0.686-0.672-0.917l-0.005-0.004c-0.282-0.203-0.634-0.325-1.015-0.325-0.014 0-0.029 0-0.043 0.001l0.002-0c-0.012-0-0.027-0-0.041-0-0.383 0-0.737 0.122-1.026 0.329l0.005-0.004c-0.303 0.235-0.536 0.547-0.672 0.906l-0.005 0.014c-0.159 0.417-0.25 0.9-0.25 1.404s0.092 0.986 0.26 1.432l-0.009-0.028c0.143 0.372 0.375 0.683 0.672 0.917l0.005 0.003c0.284 0.203 0.638 0.325 1.021 0.325 0.014 0 0.029-0 0.043-0.001l-0.002 0c0.012 0 0.026 0 0.041 0 0.381 0 0.733-0.122 1.020-0.329l-0.005 0.004c0.304-0.234 0.538-0.546 0.672-0.906l0.005-0.014c0.159-0.417 0.25-0.9 0.25-1.404s-0.092-0.986-0.26-1.432l0.009 0.028zM78.403 25.099c0-0.009 0.001-0.020 0.001-0.030 0-0.186-0.075-0.355-0.197-0.477l0 0c-0.13-0.126-0.307-0.203-0.503-0.203-0.002 0-0.003 0-0.005 0h-1.251v4.79c0.005 0.142 0.067 0.268 0.162 0.358l0 0c0.088 0.092 0.211 0.149 0.348 0.149 0.004 0 0.008-0 0.011-0h0.155v0.081h-2.239v-0.081h0.101c0.004 0 0.008 0 0.012 0 0.139 0 0.264-0.057 0.353-0.149l0-0c0.091-0.093 0.15-0.218 0.156-0.357l0-0.001v-4.824h-1.231c-0.003-0-0.007-0-0.011-0-0.195 0-0.373 0.077-0.503 0.203l0-0c-0.122 0.122-0.197 0.291-0.197 0.477 0 0.011 0 0.021 0.001 0.032l-0-0.002v0.108h-0.081v-1.265c0.071 0.025 0.155 0.046 0.242 0.060l0.008 0.001 0.365 0.061h3.795l0.372-0.061c0.092-0.013 0.174-0.035 0.252-0.064l-0.009 0.003v1.279h-0.081zM69.358 29.882c-0.008 0-0.018 0-0.028 0-0.205 0-0.406-0.020-0.6-0.057l0.020 0.003c-0.216-0.034-0.409-0.091-0.591-0.169l0.016 0.006c-0.162-0.059-0.3-0.149-0.412-0.264l-0-0c-0.028-0.094-0.043-0.201-0.043-0.313 0-0.028 0.001-0.056 0.003-0.083l-0 0.004c0.009-0.176 0.030-0.34 0.065-0.501l-0.004 0.020c0.037-0.157 0.086-0.295 0.147-0.425l-0.005 0.013h0.074c-0.005 0.044-0.008 0.094-0.008 0.145 0 0.221 0.053 0.429 0.147 0.613l-0.004-0.008c0.114 0.223 0.285 0.404 0.495 0.524l0.006 0.003c0.212 0.115 0.463 0.183 0.731 0.183 0.014 0 0.028-0 0.043-0.001l-0.002 0c0.002 0 0.005 0 0.008 0 0.306 0 0.586-0.107 0.806-0.286l-0.002 0.002c0.187-0.163 0.304-0.402 0.304-0.669 0-0.003 0-0.006-0-0.008v0c-0.001-0.165-0.049-0.32-0.131-0.45l0.002 0.004c-0.108-0.147-0.244-0.267-0.4-0.355l-0.006-0.003-1.475-1.116c-0.228-0.143-0.408-0.343-0.524-0.58l-0.004-0.008c-0.087-0.182-0.138-0.395-0.138-0.621 0-0.034 0.001-0.067 0.003-0.101l-0 0.005c0.018-0.528 0.32-0.981 0.757-1.214l0.008-0.004c0.234-0.116 0.51-0.183 0.802-0.183 0.018 0 0.035 0 0.053 0.001l-0.003-0c0.101 0 0.223 0 0.365 0l0.426 0.047h0.629v0.169l-0.061 0.954h-0.081c0.001-0.013 0.001-0.029 0.001-0.044 0-0.254-0.116-0.481-0.297-0.631l-0.001-0.001c-0.195-0.153-0.444-0.245-0.714-0.245-0.018 0-0.036 0-0.053 0.001l0.002-0c-0.019-0.001-0.040-0.002-0.062-0.002-0.262 0-0.503 0.093-0.691 0.247l0.002-0.002c-0.175 0.141-0.287 0.355-0.291 0.595v0.001c-0.001 0.010-0.001 0.021-0.001 0.033 0 0.136 0.046 0.261 0.124 0.361l-0.001-0.001c0.1 0.138 0.219 0.254 0.354 0.349l0.005 0.003 1.57 1.164c0.204 0.133 0.369 0.311 0.483 0.52l0.004 0.008c0.086 0.179 0.137 0.388 0.137 0.61 0 0.023-0.001 0.047-0.002 0.070l0-0.003c0 0.006 0 0.013 0 0.020 0 0.466-0.209 0.883-0.539 1.162l-0.002 0.002c-0.357 0.3-0.821 0.482-1.328 0.482-0.030 0-0.060-0.001-0.090-0.002l0.004 0zM61.808 25.072c0-0.009 0.001-0.020 0.001-0.030 0-0.186-0.075-0.355-0.197-0.477l0 0c-0.13-0.126-0.307-0.203-0.503-0.203-0.002 0-0.003 0-0.005 0h-1.224v4.79c0.007 0.28 0.234 0.504 0.514 0.507h0.109v0.108h-2.239v-0.081h0.101c0.004 0 0.008 0 0.012 0 0.139 0 0.264-0.057 0.353-0.149l0-0c0.094-0.091 0.153-0.218 0.156-0.358v-4.824h-1.231c-0.002-0-0.004-0-0.006-0-0.197 0-0.376 0.077-0.508 0.203l0-0c-0.122 0.122-0.197 0.291-0.197 0.477 0 0.011 0 0.021 0.001 0.032l-0-0.002v0.108h-0.081v-1.265c0.070 0.024 0.154 0.045 0.24 0.059l0.010 0.001 0.372 0.061h3.782l0.365-0.061c0.092-0.013 0.174-0.035 0.252-0.064l-0.009 0.003v1.279h-0.081zM54.285 29.652c-0.216-0.059-0.406-0.15-0.574-0.268l0.006 0.004c-0.166-0.126-0.307-0.273-0.422-0.44l-0.004-0.006c0-0.054-0.074-0.129-0.135-0.223l-0.196-0.338c-0.068-0.129-0.135-0.244-0.203-0.365s-0.129-0.216-0.176-0.311-0.074-0.156-0.088-0.196c-0.079-0.145-0.174-0.27-0.284-0.379l-0-0c-0.090-0.086-0.206-0.144-0.335-0.162l-0.003-0v-0.081h0.311c0.16-0.008 0.31-0.037 0.452-0.085l-0.012 0.003c0.161-0.057 0.298-0.15 0.405-0.27l0.001-0.001c0.124-0.154 0.214-0.342 0.256-0.547l0.001-0.008c0-0.054 0-0.115 0-0.189 0.005-0.036 0.008-0.077 0.008-0.118s-0.003-0.083-0.008-0.123l0.001 0.005c0-0.006 0-0.013 0-0.021 0-0.318-0.11-0.61-0.293-0.841l0.002 0.003c-0.168-0.186-0.408-0.305-0.675-0.311l-0.001-0h-0.744v4.77c-0 0.004-0 0.009-0 0.014 0 0.137 0.060 0.26 0.155 0.345l0.001 0c0.090 0.092 0.215 0.149 0.353 0.149 0.004 0 0.008-0 0.012-0h0.094v0.108h-2.233v-0.081h0.108c0.28-0.004 0.507-0.228 0.514-0.507v-4.527c0-0.002 0-0.005 0-0.008 0-0.139-0.060-0.264-0.155-0.351l-0-0c-0.090-0.095-0.217-0.154-0.358-0.156h-0.108v-0.081h2.591c0.241 0.001 0.474 0.036 0.694 0.099l-0.018-0.004c0.222 0.055 0.417 0.149 0.586 0.274l-0.005-0.003c0.166 0.126 0.299 0.287 0.389 0.473l0.003 0.008c0.090 0.188 0.142 0.41 0.142 0.643 0 0.012-0 0.024-0 0.035l0-0.002c-0.004 0.246-0.058 0.478-0.153 0.687l0.004-0.011c-0.106 0.235-0.262 0.43-0.456 0.579l-0.004 0.003c-0.203 0.155-0.458 0.252-0.735 0.264l-0.003 0c0.165 0.060 0.305 0.153 0.419 0.27l0 0c0.122 0.119 0.231 0.249 0.326 0.39l0.006 0.009 0.101 0.149c0.061 0.095 0.135 0.21 0.23 0.345s0.189 0.271 0.284 0.406 0.189 0.25 0.264 0.338c0.104 0.125 0.213 0.238 0.329 0.342l0.003 0.003c0.091 0.080 0.196 0.148 0.31 0.2l0.008 0.003c0.108 0.043 0.234 0.068 0.365 0.068 0.010 0 0.019-0 0.029-0l-0.001 0v0.142h-0.677c-0.254-0.010-0.495-0.051-0.724-0.12l0.020 0.005zM46.288 29.497c-0.455 0.227-0.99 0.359-1.557 0.359-0.026 0-0.052-0-0.078-0.001l0.004 0c-0.023 0.001-0.050 0.001-0.078 0.001-0.57 0-1.109-0.133-1.587-0.369l0.021 0.009c-0.454-0.234-0.819-0.586-1.062-1.016l-0.007-0.013c-0.242-0.454-0.384-0.994-0.384-1.566s0.142-1.112 0.393-1.584l-0.009 0.018c0.252-0.443 0.619-0.795 1.061-1.022l0.014-0.007c0.451-0.227 0.983-0.36 1.546-0.36 0.030 0 0.059 0 0.089 0.001l-0.004-0c0.027-0.001 0.059-0.001 0.092-0.001 0.561 0 1.090 0.133 1.559 0.369l-0.020-0.009c0.456 0.235 0.822 0.586 1.069 1.016l0.007 0.013c0.239 0.455 0.378 0.994 0.378 1.566s-0.14 1.111-0.387 1.585l0.009-0.019c-0.252 0.441-0.616 0.793-1.055 1.022l-0.014 0.007zM46.41 25.499c-0.139-0.374-0.372-0.686-0.672-0.917l-0.005-0.004c-0.282-0.204-0.635-0.326-1.016-0.326-0.023 0-0.047 0-0.070 0.001l0.003-0c-0.012-0-0.027-0-0.041-0-0.383 0-0.737 0.122-1.026 0.329l0.005-0.004c-0.303 0.235-0.536 0.547-0.672 0.906l-0.005 0.014c-0.159 0.417-0.25 0.9-0.25 1.404s0.092 0.986 0.26 1.432l-0.009-0.028c0.143 0.372 0.375 0.683 0.672 0.917l0.005 0.003c0.284 0.203 0.638 0.325 1.021 0.325 0.014 0 0.029-0 0.043-0.001l-0.002 0c0.012 0 0.026 0 0.041 0 0.381 0 0.733-0.122 1.020-0.329l-0.005 0.004c0.304-0.234 0.538-0.546 0.672-0.906l0.005-0.014c0.159-0.417 0.25-0.9 0.25-1.404s-0.092-0.986-0.26-1.432l0.009 0.028zM38.562 26.892c-0.284 0.244-0.657 0.393-1.064 0.393-0.076 0-0.15-0.005-0.223-0.015l0.008 0.001c-0.255-0.037-0.483-0.125-0.683-0.254l0.007 0.004v-0.081c0.060 0.007 0.129 0.010 0.2 0.010s0.14-0.004 0.208-0.011l-0.008 0.001c0.141-0.028 0.266-0.067 0.383-0.12l-0.011 0.005c0.147-0.068 0.271-0.161 0.371-0.276l0.001-0.001c0.121-0.14 0.21-0.311 0.255-0.499l0.002-0.008c0.026-0.070 0.043-0.151 0.047-0.235l0-0.002c0-0.088 0-0.169 0-0.25 0-0.009 0-0.019 0-0.029 0-0.314-0.107-0.603-0.287-0.833l0.002 0.003c-0.184-0.209-0.453-0.339-0.751-0.339-0.017 0-0.033 0-0.049 0.001l0.002-0h-0.677v4.783c0.006 0.14 0.064 0.266 0.156 0.359l-0-0c0.090 0.092 0.215 0.149 0.353 0.149 0.004 0 0.008-0 0.012-0h0.101v0.122h-2.226v-0.081h0.108c0.003 0 0.007 0 0.011 0 0.137 0 0.26-0.057 0.348-0.149l0-0c0.096-0.091 0.157-0.217 0.162-0.358l0-0.001v-4.526c0-0.002 0-0.005 0-0.008 0-0.139-0.060-0.264-0.155-0.351l-0-0c-0.091-0.096-0.22-0.156-0.363-0.156-0.001 0-0.002 0-0.003 0h-0.101v-0.081h2.51c0.024-0.001 0.053-0.001 0.081-0.001 0.355 0 0.692 0.075 0.996 0.211l-0.016-0.006c0.264 0.118 0.479 0.306 0.626 0.542l0.003 0.006c0.136 0.233 0.216 0.513 0.217 0.812v0c0.001 0.025 0.002 0.055 0.002 0.085 0 0.247-0.056 0.48-0.155 0.689l0.004-0.010c-0.1 0.202-0.237 0.371-0.403 0.505l-0.003 0.002zM30.349 29.855c-0.008 0-0.018 0-0.028 0-0.205 0-0.406-0.020-0.6-0.057l0.020 0.003c-0.216-0.034-0.409-0.091-0.591-0.169l0.016 0.006c-0.162-0.059-0.3-0.149-0.413-0.264l-0-0c-0.028-0.094-0.043-0.201-0.043-0.313 0-0.028 0.001-0.056 0.003-0.083l-0 0.004c0.009-0.176 0.030-0.34 0.065-0.501l-0.004 0.020c0.037-0.157 0.086-0.295 0.147-0.425l-0.005 0.013h0.074c-0.005 0.044-0.008 0.094-0.008 0.145 0 0.221 0.053 0.429 0.147 0.613l-0.004-0.008c0.114 0.223 0.285 0.404 0.495 0.524l0.006 0.003c0.212 0.115 0.463 0.183 0.731 0.183 0.014 0 0.028-0 0.043-0.001l-0.002 0c0.002 0 0.005 0 0.008 0 0.306 0 0.586-0.107 0.806-0.286l-0.002 0.002c0.187-0.163 0.304-0.402 0.304-0.669 0-0.003 0-0.006-0-0.008v0c-0.001-0.165-0.049-0.32-0.131-0.45l0.002 0.004c-0.108-0.147-0.244-0.267-0.4-0.355l-0.006-0.003-1.475-1.13c-0.228-0.143-0.408-0.343-0.524-0.58l-0.004-0.008c-0.087-0.182-0.138-0.395-0.138-0.621 0-0.034 0.001-0.067 0.003-0.101l-0 0.005c0.018-0.528 0.32-0.981 0.757-1.214l0.008-0.004c0.234-0.116 0.51-0.183 0.802-0.183 0.013 0 0.026 0 0.039 0l-0.002-0c0.101 0 0.223 0 0.365 0l0.426 0.047h0.629v0.169l-0.068 0.988h-0.081c0.001-0.013 0.001-0.029 0.001-0.044 0-0.254-0.116-0.481-0.297-0.631l-0.001-0.001c-0.195-0.153-0.444-0.245-0.714-0.245-0.018 0-0.036 0-0.053 0.001l0.003-0c-0.019-0.001-0.040-0.002-0.062-0.002-0.262 0-0.503 0.093-0.691 0.247l0.002-0.002c-0.175 0.141-0.287 0.355-0.291 0.595v0.001c-0.001 0.010-0.001 0.021-0.001 0.033 0 0.136 0.046 0.261 0.124 0.361l-0.001-0.001c0.1 0.138 0.219 0.254 0.354 0.349l0.005 0.003 1.57 1.164c0.204 0.133 0.369 0.311 0.483 0.52l0.004 0.008c0.086 0.179 0.137 0.388 0.137 0.61 0 0.023-0.001 0.047-0.002 0.070l0-0.003c0 0.006 0 0.013 0 0.020 0 0.466-0.209 0.883-0.539 1.162l-0.002 0.002c-0.358 0.303-0.825 0.488-1.335 0.488-0.021 0-0.041-0-0.062-0.001l0.003 0z"></path>
<path fill="#333" d="M101.48 14.14c-0.422 0.947-1.020 1.746-1.758 2.388l-0.008 0.007c-0.758 0.663-1.661 1.183-2.652 1.507l-0.054 0.015c-1.012 0.335-2.178 0.529-3.388 0.529-0.050 0-0.101-0-0.151-0.001l0.008 0c-0.038 0-0.084 0.001-0.13 0.001-1.206 0-2.367-0.193-3.453-0.551l0.078 0.022c-1.045-0.339-1.948-0.859-2.715-1.53l0.009 0.008c-0.747-0.647-1.343-1.446-1.742-2.352l-0.017-0.043c-0.386-0.896-0.61-1.939-0.61-3.035 0-0.044 0-0.088 0.001-0.131l-0 0.007c-0.001-0.039-0.001-0.084-0.001-0.13 0-1.103 0.224-2.153 0.63-3.109l-0.020 0.052c0.41-0.94 0.995-1.735 1.718-2.375l0.007-0.006c0.761-0.658 1.662-1.178 2.651-1.506l0.056-0.016c1.053-0.331 2.263-0.521 3.518-0.521s2.465 0.19 3.604 0.544l-0.086-0.023c1.044 0.345 1.945 0.864 2.716 1.531l-0.010-0.008c0.757 0.644 1.365 1.438 1.782 2.339l0.017 0.042c0.394 0.898 0.624 1.944 0.624 3.044 0 0.050-0 0.1-0.001 0.15l0-0.007c0.001 0.041 0.001 0.089 0.001 0.137 0 1.093-0.229 2.132-0.643 3.072l0.019-0.049zM97.766 7.442c-0.347-0.95-0.933-1.743-1.687-2.332l-0.011-0.009c-0.698-0.512-1.574-0.819-2.521-0.819-0.027 0-0.054 0-0.081 0.001l0.004-0c-0.021-0-0.045-0.001-0.069-0.001-0.937 0-1.802 0.308-2.499 0.827l0.011-0.008c-0.766 0.6-1.355 1.392-1.7 2.304l-0.012 0.036c-0.387 0.994-0.611 2.145-0.611 3.348 0 0.076 0.001 0.153 0.003 0.229l-0-0.011c-0.002 0.066-0.003 0.143-0.003 0.221 0 1.19 0.224 2.328 0.633 3.374l-0.022-0.063c0.36 0.935 0.947 1.714 1.693 2.298l0.012 0.009c0.684 0.508 1.545 0.813 2.477 0.813 0.028 0 0.057-0 0.085-0.001l-0.004 0c0.026 0.001 0.057 0.001 0.088 0.001 0.943 0 1.815-0.305 2.522-0.821l-0.012 0.008c0.762-0.589 1.349-1.37 1.693-2.271l0.012-0.036c0.378-0.988 0.598-2.131 0.598-3.324 0-0.073-0.001-0.145-0.002-0.218l0 0.011c0.001-0.060 0.002-0.131 0.002-0.203 0-1.207-0.219-2.363-0.62-3.43l0.022 0.067zM79.215 18.266h-5.162v-0.244h0.318c0.003 0 0.007 0 0.011 0 0.373 0 0.712-0.144 0.964-0.38l-0.001 0.001c0.253-0.218 0.413-0.54 0.413-0.898 0-0.005-0-0.011-0-0.016v0.001-11.318c0-0.011 0-0.023 0-0.036 0-0.785-0.616-1.426-1.391-1.466l-0.004-0h-0.311v-0.257h6.914v0.244h-0.271c-0.010-0-0.022-0-0.034-0-0.367 0-0.702 0.139-0.955 0.367l0.001-0.001c-0.253 0.232-0.414 0.559-0.426 0.925l-0 0.002v11.542c0.020 0.362 0.18 0.682 0.425 0.913l0.001 0.001c0.251 0.235 0.589 0.379 0.961 0.379 0.009 0 0.019-0 0.028-0l-0.001 0h0.291v0.244h-1.752zM69.866 18.266h-11.4v-0.244h0.318c0.003 0 0.006 0 0.010 0 0.358 0 0.682-0.145 0.917-0.379l-0 0c0.238-0.224 0.386-0.541 0.386-0.892 0-0.007-0-0.015-0-0.022v0.001-11.542c0-0.008 0-0.018 0-0.028 0-0.356-0.154-0.676-0.398-0.898l-0.001-0.001c-0.241-0.226-0.567-0.365-0.925-0.365-0.005 0-0.011 0-0.016 0h-0.29v-0.244h6.765v0.244h-0.284c-0.006-0-0.013-0-0.021-0-0.352 0-0.672 0.139-0.906 0.366l0-0c-0.256 0.229-0.419 0.558-0.426 0.926l-0 0.001v11.921c0 0.101 0.082 0.183 0.183 0.183v0h2.706c0.022 0 0.048 0.001 0.074 0.001 0.654 0 1.271-0.158 1.815-0.437l-0.022 0.010c0.563-0.304 1.031-0.713 1.392-1.206l0.008-0.012c0.387-0.533 0.695-1.155 0.889-1.825l0.010-0.042h0.244l-0.954 4.485zM52.77 18.266h-5.169v-0.244h0.318c0.003 0 0.007 0 0.011 0 0.373 0 0.712-0.144 0.964-0.38l-0.001 0.001c0.253-0.218 0.413-0.54 0.413-0.898 0-0.005-0-0.011-0-0.016v0.001-11.393c0.001-0.019 0.001-0.042 0.001-0.065 0-0.509-0.269-0.955-0.672-1.204l-0.006-0.003c-0.196-0.106-0.429-0.169-0.676-0.169h-0.298v-0.244h6.867v0.244h-0.264c-0.012-0-0.027-0.001-0.041-0.001-0.365 0-0.698 0.139-0.948 0.367l0.001-0.001c-0.258 0.228-0.421 0.558-0.426 0.926v11.543c0.010 0.364 0.172 0.688 0.425 0.912l0.001 0.001c0.243 0.235 0.575 0.38 0.94 0.38 0.017 0 0.034-0 0.050-0.001l-0.002 0h0.291v0.244h-1.779zM42.195 18.266c-0.466-0.024-0.904-0.089-1.327-0.193l0.048 0.010c-0.547-0.123-1.030-0.312-1.475-0.562l0.027 0.014c-0.516-0.282-0.947-0.657-1.285-1.106l-0.007-0.010-0.413-0.589-0.677-0.974-1.637-2.266c-0.223-0.311-0.467-0.677-0.724-1.035-0.022-0.030-0.036-0.068-0.036-0.108s0.013-0.078 0.036-0.109l-0 0.001 4.918-6.515c0.106-0.102 0.172-0.246 0.172-0.404 0-0.1-0.026-0.194-0.072-0.275l0.001 0.003c-0.11-0.185-0.309-0.307-0.536-0.307-0.018 0-0.037 0.001-0.055 0.002l0.002-0h-0.217v-0.216h4.966v0.244h-0.095c-0.468 0-0.912 0.1-1.313 0.279l0.020-0.008c-0.4 0.169-0.737 0.418-1.005 0.727l-3.846 4.543c-0.024 0.031-0.038 0.069-0.038 0.112s0.014 0.081 0.038 0.112l-0-0 5.060 7.002c0.263 0.408 0.587 0.752 0.964 1.028l0.011 0.007c0.334 0.23 0.746 0.369 1.19 0.372h0.001v0.223h-1.894c-0.162 0-0.433 0-0.805 0zM35.281 3.87c-0.004-0-0.010-0-0.015-0-0.365 0-0.696 0.144-0.939 0.379l0-0c-0.238 0.23-0.386 0.553-0.386 0.91 0 0.011 0 0.021 0 0.032l-0-0.002v11.542c-0 0.006-0 0.014-0 0.021 0 0.351 0.148 0.668 0.385 0.892l0.001 0.001c0.243 0.234 0.574 0.379 0.939 0.379 0.005 0 0.010-0 0.016-0h0.263v0.244h-6.718v-0.244h0.264c0.007 0 0.016 0 0.024 0 0.36 0 0.686-0.145 0.923-0.379l-0 0c0.245-0.229 0.4-0.553 0.406-0.912v-11.543c-0.019-0.733-0.617-1.319-1.353-1.319-0 0-0 0-0 0h-0.271v-0.244h6.765v0.244h-0.264zM21.866 15.472c0 0.002 0 0.003 0 0.005 0 0.101-0.082 0.183-0.183 0.183-0.083 0-0.154-0.056-0.176-0.132l-0-0.001c-0.575-1.881-1.888-3.383-3.166-3.653 1.279 0.771 4.255 4.864 2.266 10.148-0.028 0.067-0.093 0.114-0.169 0.114-0.101 0-0.183-0.082-0.183-0.183 0-0.002 0-0.004 0-0.006v0c0.169-3.071-0.94-5.778-2.165-6.934 2.584 5.412 1.028 10.006-0.602 12.103-0.034 0.047-0.088 0.077-0.149 0.077-0.101 0-0.183-0.082-0.183-0.183 0-0.018 0.003-0.035 0.007-0.051l-0 0.001c0.413-1.874-0.345-3.457 0.447-5.52-1.793 1.955 0 6.238-3.992 8.937-0.027 0.016-0.060 0.026-0.095 0.026-0.105 0-0.189-0.085-0.189-0.189 0-0.032 0.008-0.061 0.021-0.088l-0.001 0.001c0.678-1.057 1.081-2.346 1.081-3.73 0-0.321-0.022-0.637-0.064-0.947l0.004 0.036c-0.332 2.936-2.104 4.147-3.281 6.434-0.031 0.059-0.092 0.099-0.162 0.099s-0.131-0.040-0.162-0.098l-0-0.001c-1.177-2.287-2.95-3.498-3.281-6.434-0.038 0.274-0.060 0.59-0.060 0.911 0 1.384 0.403 2.674 1.098 3.758l-0.017-0.028c0.013 0.025 0.021 0.055 0.021 0.087 0 0.105-0.085 0.189-0.189 0.189-0.035 0-0.068-0.010-0.096-0.026l0.001 0c-4.005-2.706-2.199-6.982-3.992-8.937 0.792 2.063 0 3.646 0.447 5.52 0.004 0.015 0.007 0.032 0.007 0.050 0 0.101-0.082 0.183-0.183 0.183-0.061 0-0.116-0.030-0.149-0.077l-0-0.001c-1.63-2.097-3.186-6.698-0.602-12.103-1.225 1.157-2.341 3.863-2.165 6.928-0.002 0.103-0.086 0.185-0.189 0.185-0.074 0-0.137-0.042-0.169-0.103l-0-0.001c-1.982-5.263 0.995-9.356 2.273-10.148-1.279 0.304-2.591 1.773-3.166 3.687-0.020 0.081-0.093 0.141-0.179 0.141-0.102 0-0.185-0.083-0.185-0.185 0-0.016 0.002-0.031 0.006-0.045l-0 0.001c0-3.241 2.124-5.92 4.959-6.38-0.15-0.019-0.323-0.030-0.498-0.030-0.896 0-1.727 0.279-2.411 0.756l0.014-0.009c-0.027 0.016-0.059 0.026-0.094 0.026-0.101 0-0.183-0.082-0.183-0.183 0-0.043 0.015-0.083 0.040-0.114l-0 0c0.552-0.756 1.248-1.372 2.051-1.817l0.032-0.016 0.196 0.528-0.216 0.149c3.207-0.758 4.736 1.265 6.447 1.921-0.271-0.284-0.575-0.589-0.913-0.88 0.415 0.056 0.895 0.089 1.383 0.089 0.044 0 0.088-0 0.133-0.001l-0.007 0c0.038 0.001 0.083 0.001 0.128 0.001 0.484 0 0.961-0.032 1.429-0.095l-0.055 0.006c-0.332 0.291-0.636 0.595-0.907 0.88 1.698-0.677 3.241-2.706 6.447-1.921l-0.216-0.149 0.196-0.528c0.836 0.462 1.532 1.078 2.071 1.816l0.012 0.018c0.025 0.031 0.040 0.071 0.040 0.114 0 0.101-0.082 0.183-0.183 0.183-0.035 0-0.067-0.010-0.095-0.027l0.001 0c-0.67-0.467-1.5-0.746-2.396-0.746-0.174 0-0.345 0.010-0.513 0.031l0.020-0.002c2.828 0.46 4.959 3.139 4.952 6.38zM4.404 10.912c-0.819 0.609 0.399 1.698 0.061 2.896 0.202-0.289 0.402-0.54 0.616-0.779l-0.007 0.008c0.306-0.377 0.679-0.686 1.104-0.911l0.019-0.009c-0.030-0.001-0.065-0.001-0.1-0.001-0.318 0-0.626 0.043-0.919 0.122l0.024-0.006c0.418-0.415 0.944-0.722 1.533-0.874l0.024-0.005c0.072-0.026 0.123-0.093 0.123-0.173s-0.051-0.147-0.121-0.172l-0.001-0c-0.677-0.23-1.773-0.534-2.361-0.095zM8.917 17.164c-0-0.019-0-0.042-0-0.065 0-0.843 0.237-1.632 0.647-2.302l-0.011 0.019c0.019-0.028 0.031-0.064 0.031-0.101 0-0.1-0.080-0.181-0.179-0.183h-0c-0.605-0.077-1.151-0.281-1.626-0.584l0.016 0.009c-0.203-0.055-0.436-0.086-0.677-0.086s-0.473 0.031-0.695 0.090l0.019-0.004c0.266 0.092 0.493 0.238 0.676 0.426l0 0c0.219 0.469 0.687 0.788 1.229 0.788 0.121 0 0.238-0.016 0.35-0.046l-0.009 0.002c0.003-0 0.006-0 0.009-0 0.101 0 0.183 0.082 0.183 0.183 0 0.010-0.001 0.019-0.002 0.028l0-0.001c-0.022 0.222-0.035 0.479-0.035 0.74 0 0.383 0.027 0.76 0.080 1.129l-0.005-0.042zM4.506 9.972c0.24-0.036 0.518-0.056 0.8-0.056 1.368 0 2.624 0.481 3.608 1.282l-0.010-0.008c0.494 0.406 0.974 0.257 1.752 0.555-0.71-0.92-3.619-2.503-6.15-1.773zM9.411 18.266c-0.007 0-0.015 0-0.023 0-0.277 0-0.501-0.224-0.501-0.501 0-0.034 0.003-0.067 0.010-0.098l-0.001 0.003c-0.677 1.252 1.116 1.231 1.488 1.86 0.118 0.211 0.187 0.463 0.187 0.731 0 0.064-0.004 0.128-0.012 0.19l0.001-0.007c-0.054 0.798-1.312 0.71-2.219 1.59-0.246-0.105-0.457-0.225-0.653-0.365l0.010 0.007c0.343-0.235 0.64-0.498 0.902-0.793l0.004-0.005c-0.354 0.21-0.763 0.387-1.194 0.512l-0.037 0.009c-0.171-0.171-0.308-0.376-0.402-0.603l-0.004-0.012c0.585-0.126 1.103-0.315 1.584-0.564l-0.035 0.016c-0.29 0.050-0.624 0.079-0.964 0.079-0.192 0-0.381-0.009-0.568-0.027l0.024 0.002c-0.095-0.010-0.17-0.087-0.176-0.182l-0-0.001c0.056-0.905 0.421-1.716 0.99-2.337l-0.003 0.003c-0.606 0.312-1.117 0.725-1.529 1.223l-0.006 0.008c-0.034 0.047-0.088 0.077-0.149 0.077s-0.115-0.030-0.148-0.076l-0-0.001c-0.578-0.795-0.924-1.791-0.924-2.867 0-0.587 0.103-1.15 0.292-1.672l-0.011 0.034c0.003-0.012 0.004-0.026 0.004-0.040 0-0.101-0.082-0.183-0.183-0.183-0.060 0-0.113 0.029-0.146 0.073l-0 0c-0.961 1.448-1.948 3.762-0.961 6.096-0.059-0.292-0.093-0.628-0.093-0.972 0-0.622 0.111-1.218 0.314-1.77l-0.011 0.035c-0.101 1.881 1.725 3.437 2.185 7.503 0.060-0.407 0.093-0.876 0.093-1.353s-0.034-0.947-0.1-1.406l0.006 0.053c-0.001-0.006-0.001-0.013-0.001-0.020 0-0.101 0.082-0.183 0.183-0.183 0.071 0 0.133 0.041 0.163 0.1l0 0.001c0.737 1.563 1.15 3.342 2.422 4.648-0.464-0.774-0.74-1.708-0.744-2.705v-0.001c0.196 0.852 1.806 1.651 2.32 2.625 0.030 0.056 0.088 0.094 0.156 0.094s0.126-0.038 0.155-0.093l0-0.001c0.514-0.974 2.124-1.773 2.32-2.625-0.004 0.999-0.28 1.932-0.758 2.731l0.014-0.024c1.272-1.306 1.685-3.085 2.422-4.648 0.031-0.060 0.092-0.101 0.163-0.101 0.101 0 0.183 0.082 0.183 0.183 0 0.007-0 0.014-0.001 0.021l0-0.001c-0.060 0.407-0.094 0.876-0.094 1.353s0.034 0.947 0.1 1.406l-0.006-0.053c0.46-4.059 2.287-5.649 2.172-7.516 0.192 0.516 0.303 1.112 0.303 1.734 0 0.344-0.034 0.68-0.099 1.005l0.005-0.033c1.001-2.334 0-4.648-0.947-6.089-0.034-0.045-0.087-0.073-0.146-0.073-0.101 0-0.183 0.082-0.183 0.183 0 0.014 0.002 0.028 0.005 0.041l-0-0.001c0.17 0.478 0.269 1.030 0.269 1.604 0 1.091-0.355 2.099-0.955 2.915l0.010-0.014c-0.034 0.047-0.088 0.077-0.149 0.077s-0.115-0.030-0.148-0.076l-0-0.001c-0.419-0.506-0.929-0.92-1.509-1.219l-0.027-0.013c0.567 0.617 0.931 1.429 0.981 2.324l0 0.010c0 0.005 0.001 0.011 0.001 0.017 0 0.089-0.064 0.163-0.148 0.179l-0.001 0c-0.163 0.016-0.353 0.025-0.544 0.025-0.341 0-0.674-0.029-0.999-0.084l0.035 0.005c0.446 0.234 0.964 0.423 1.509 0.541l0.041 0.007c-0.1 0.239-0.237 0.443-0.406 0.616l0-0c-0.469-0.134-0.877-0.311-1.256-0.534l0.025 0.014c0.266 0.3 0.564 0.563 0.89 0.788l0.016 0.011c-0.195 0.136-0.418 0.256-0.654 0.351l-0.023 0.008c-0.907-0.88-2.158-0.792-2.219-1.59-0.004-0.041-0.006-0.088-0.006-0.137 0-0.284 0.078-0.55 0.213-0.777l-0.004 0.007c0.372-0.629 2.145-0.609 1.488-1.86 0.006 0.029 0.009 0.062 0.009 0.095 0 0.276-0.224 0.501-0.501 0.501-0.008 0-0.016-0-0.024-0.001l0.001 0c-0.531 0.008-1.044 0.069-1.539 0.178l0.050-0.009c-0.010 0.003-0.022 0.005-0.034 0.005s-0.024-0.002-0.035-0.005l0.001 0c-0.448-0.104-0.967-0.17-1.499-0.182l-0.010-0zM14.782 14.342c0.175-0.185 0.39-0.33 0.631-0.422l0.012-0.004c-0.203-0.055-0.436-0.086-0.677-0.086s-0.473 0.031-0.695 0.090l0.019-0.004c-0.46 0.294-1.005 0.498-1.591 0.573l-0.019 0.002c-0.1 0.002-0.18 0.083-0.18 0.183 0 0.038 0.011 0.073 0.031 0.102l-0-0.001c0.4 0.651 0.636 1.439 0.636 2.282 0 0.023-0 0.046-0.001 0.069l0-0.003c0.063-0.373 0.098-0.802 0.098-1.24 0-0.216-0.009-0.43-0.026-0.642l0.002 0.028c-0.001-0.008-0.002-0.018-0.002-0.027 0-0.101 0.082-0.183 0.183-0.183 0.003 0 0.006 0 0.009 0l-0-0c0.107 0.031 0.23 0.048 0.357 0.048 0.528 0 0.986-0.303 1.209-0.744l0.004-0.008zM11.21 11.731c0.778-0.298 1.258-0.149 1.745-0.555 0.977-0.793 2.236-1.273 3.607-1.273 0.281 0 0.558 0.020 0.829 0.059l-0.031-0.004c-2.53-0.717-5.439 0.866-6.15 1.786zM15.1 10.994c-0.072 0.026-0.123 0.093-0.123 0.173s0.051 0.147 0.121 0.172l0.001 0c0.611 0.161 1.136 0.467 1.557 0.88l-0-0.001c-0.268-0.074-0.576-0.116-0.894-0.116-0.035 0-0.070 0.001-0.105 0.002l0.005-0c0.444 0.234 0.818 0.543 1.118 0.913l0.005 0.007c0.207 0.231 0.407 0.482 0.592 0.745l0.017 0.026c-0.338-1.197 0.88-2.287 0.061-2.896v0c-0.582-0.426-1.691-0.122-2.354 0.108zM13.301 8.673c-0.021 0.020-0.050 0.033-0.081 0.034h-0c-0.677 0.074-1.583 0.108-2.287 0.108s-1.617-0.034-2.287-0.108c-0.032-0-0.060-0.013-0.081-0.034v0c-1.123-0.778-2.436-1.299-3.721-0.866-0.019 0.008-0.042 0.013-0.065 0.013-0.075 0-0.139-0.047-0.164-0.113l-0-0.001-2.030-5.412c-0.009-0.021-0.014-0.045-0.014-0.070 0-0.101 0.082-0.183 0.183-0.183 0.032 0 0.063 0.008 0.089 0.023l-0.001-0 1.556 0.819c0.056 0.034 0.094 0.094 0.094 0.163 0 0.016-0.002 0.032-0.006 0.048l0-0.001c-0.061 0.202-0.096 0.435-0.096 0.675 0 0.985 0.589 1.831 1.434 2.208l0.015 0.006c1.184 0.521 3.457 0.108 3.917-1.657 0.068-0.191 0.107-0.412 0.107-0.642 0-0.541-0.216-1.030-0.567-1.388l0 0c-0.025-0.031-0.041-0.071-0.041-0.115s0.015-0.084 0.041-0.115l-0 0 1.529-1.989c0.031-0.047 0.083-0.077 0.142-0.077s0.111 0.031 0.142 0.077l0 0.001 1.488 1.955c0.027 0.031 0.043 0.071 0.043 0.115s-0.016 0.084-0.043 0.115l0-0c-0.344 0.363-0.555 0.854-0.555 1.395 0 0.227 0.037 0.445 0.106 0.649l-0.004-0.014c0.46 1.766 2.706 2.178 3.917 1.657 0.86-0.382 1.449-1.229 1.449-2.214 0-0.241-0.035-0.473-0.101-0.692l0.004 0.017c-0.004-0.014-0.006-0.030-0.006-0.046 0-0.069 0.037-0.13 0.093-0.163l0.001-0 1.563-0.792c0.026-0.014 0.056-0.023 0.088-0.023 0.101 0 0.183 0.082 0.183 0.183 0 0.025-0.005 0.049-0.014 0.071l0-0.001-2.030 5.412c-0.026 0.067-0.090 0.114-0.165 0.114-0.024 0-0.046-0.005-0.067-0.013l0.001 0c-1.326-0.413-2.638 0.108-3.762 0.886zM10.933 6.562c-0.002-0-0.004-0-0.007-0-0.325 0-0.589 0.264-0.589 0.589s0.264 0.589 0.589 0.589c0.325 0 0.589-0.264 0.589-0.589 0-0.002 0-0.005-0-0.007v0c-0.011-0.314-0.267-0.565-0.581-0.568h-0z"></path>
</svg>
